<svg xmlns="http://www.w3.org/2000/svg" width="30.163" height="17.794" viewBox="0 0 30.163 17.794"><defs><style>.a{fill:rgba(161,161,161,0.85);fill-rule:evenodd;}</style></defs><path class="a" d="M24.131,3.619q-.782,2.907-1.549,5.818c-.254.971-.5,1.942-.8,2.9a12.545,12.545,0,0,1-1.143,2.776,4.909,4.909,0,0,1-2.17,2.017,5.457,5.457,0,0,1-1.179.384,11.547,11.547,0,0,1-1.753.207c-1.46.082-4.559.07-6.019.07l.9-3.317c.678,0,1.355,0,2.032-.016a10.225,10.225,0,0,0,2.017-.205,2.882,2.882,0,0,0,1.7-1.027,6.482,6.482,0,0,0,.944-1.789c.427-1.123.864-2.731,1.173-3.887.349-1.309.684-2.621,1.022-3.933Zm6.032,0-2.6,9.651H22.734l2.6-9.651h4.825ZM14.25,0h4.825q-.758,2.826-1.522,5.65c-.356,1.311-.71,2.623-1.1,3.926-.169.568-.337,1.134-.558,1.686a2.946,2.946,0,0,1-.744,1.168,2.4,2.4,0,0,1-.922.51,6.146,6.146,0,0,1-1.364.231c-.666.055-1.332.069-2,.079-1.534.025-4.32.021-5.855.015-.551,0-1.1-.006-1.654-.016-.4-.007-.8-.017-1.2-.042a6.685,6.685,0,0,1-.794-.088,2.326,2.326,0,0,1-.518-.15A1.4,1.4,0,0,1,0,11.658a4.211,4.211,0,0,1,.116-.981c.1-.46.215-.915.332-1.369.225-.869.637-2.471.958-3.315A3.413,3.413,0,0,1,2.622,4.255a3.075,3.075,0,0,1,1.132-.441A7.411,7.411,0,0,1,4.669,3.7c.515-.038,1.03-.05,1.545-.059.733-.013,1.465-.016,2.2-.018l1.828,0h1.828l-.651,2.413c-1.086,0-2.172,0-3.259,0-.317,0-.634,0-.951.02a1.217,1.217,0,0,0-.331.053.46.46,0,0,0-.277.269,3.693,3.693,0,0,0-.2.587c-.089.3-.172.611-.255.917-.128.472-.256.944-.377,1.417-.045.175-.089.351-.127.528a3.212,3.212,0,0,0-.062.374.677.677,0,0,0,.067.433.475.475,0,0,0,.364.18,3.962,3.962,0,0,0,.457.032c.25.008.5.009.75.01q1.026,0,2.053,0c.315,0,.63,0,.945-.017a3.259,3.259,0,0,0,.645-.068.686.686,0,0,0,.4-.234,1.139,1.139,0,0,0,.167-.3,7.694,7.694,0,0,0,.268-.806c.308-1.042.586-2.092.87-3.14l.848-3.147L14.25,0h0Z" transform="translate(0)"/></svg>