<svg xmlns="http://www.w3.org/2000/svg" width="296" height="23" viewBox="0 0 296 23"><defs><style>.a,.c{fill:#fff;}.a{stroke:rgba(0,0,0,0.15);stroke-miterlimit:10;}.b,.f{fill:rgba(0,0,0,0.65);}.b,.d{font-size:9px;font-family:SegoeUI, Segoe UI;}.c{stroke:#4d82d1;}.d{fill:#4d82d1;}.e{opacity:0;}.g{stroke:none;}.h{fill:none;}</style></defs><g transform="translate(0 0.5)"><g transform="translate(27.414)"><g class="a" transform="translate(-0.414 0)"><rect class="g" width="22" height="22" rx="2"/><rect class="h" x="0.5" y="0.5" width="21" height="21" rx="1.5"/></g><text class="b" transform="translate(8.586 14)"><tspan x="0" y="0">1</tspan></text><g transform="translate(27.414)"><rect class="c" width="22" height="22" rx="2" transform="translate(0.173 0)"/><text class="d" transform="translate(8.43 14.112)"><tspan x="0" y="0">2</tspan></text></g><g transform="translate(54.827)"><g class="a" transform="translate(-0.241 0)"><rect class="g" width="22" height="22" rx="2"/><rect class="h" x="0.5" y="0.5" width="21" height="21" rx="1.5"/></g><text class="b" transform="translate(7.759 14)"><tspan x="0" y="0">3</tspan></text></g><g transform="translate(82.241)"><g class="a" transform="translate(0.345 0)"><rect class="g" width="22" height="22" rx="2"/><rect class="h" x="0.5" y="0.5" width="21" height="21" rx="1.5"/></g><text class="b" transform="translate(7.881 14.112)"><tspan x="0" y="0">4</tspan></text></g><g transform="translate(109.655)"><g class="a" transform="translate(-0.068 0)"><rect class="g" width="22" height="22" rx="2"/><rect class="h" x="0.5" y="0.5" width="21" height="21" rx="1.5"/></g><text class="b" transform="translate(7.881 14.112)"><tspan x="0" y="0">5</tspan></text></g><g transform="translate(137.068)"><g class="a" transform="translate(-0.482 0)"><rect class="g" width="22" height="22" rx="2"/><rect class="h" x="0.5" y="0.5" width="21" height="21" rx="1.5"/></g><text class="b" transform="translate(7.881 14.112)"><tspan x="0" y="0">6</tspan></text></g><g transform="translate(164.482)"><g class="a" transform="translate(0.104 0)"><rect class="g" width="22" height="22" rx="2"/><rect class="h" x="0.5" y="0.5" width="21" height="21" rx="1.5"/></g><text class="b" transform="translate(8.104 14)"><tspan x="0" y="0">7</tspan></text></g><g transform="translate(191.896)"><g class="a" transform="translate(-0.31 0)"><rect class="g" width="22" height="22" rx="2"/><rect class="h" x="0.5" y="0.5" width="21" height="21" rx="1.5"/></g><text class="b" transform="translate(7.881 14.112)"><tspan x="0" y="0">8</tspan></text></g><g transform="translate(219.31)"><g class="a" transform="translate(0.277 0)"><rect class="g" width="22" height="22" rx="2"/><rect class="h" x="0.5" y="0.5" width="21" height="21" rx="1.5"/></g><text class="b" transform="translate(7.881 14.112)"><tspan x="0" y="0">9</tspan></text></g></g><g class="a" transform="translate(0 0)"><rect class="g" width="22" height="22" rx="2"/><rect class="h" x="0.5" y="0.5" width="21" height="21" rx="1.5"/></g><g transform="translate(5.483 5.483)"><rect class="e" width="11" height="11" transform="translate(-0.483 -0.483)"/><rect class="e" width="11" height="11" transform="translate(-0.483 -0.483)"/><path class="f" d="M5.1.914V.086A.086.086,0,0,0,4.961.017L.132,3.789a.343.343,0,0,0,0,.539L4.959,8.1A.085.085,0,0,0,5.1,8.028V7.2a.173.173,0,0,0-.069-.137L1.177,4.059l3.855-3.01A.173.173,0,0,0,5.1.914Z" transform="translate(2.655 1.424)"/></g><g transform="translate(274.137)"><g class="a" transform="translate(-0.137 0)"><rect class="g" width="22" height="22" rx="2"/><rect class="h" x="0.5" y="0.5" width="21" height="21" rx="1.5"/></g><g transform="translate(5.483 5.483)"><rect class="e" width="11" height="11" transform="translate(0.38 -0.483)"/><path class="f" d="M4.965,3.789.137.019A.085.085,0,0,0,0,.087V.914a.173.173,0,0,0,.069.137L3.92,4.059.069,7.069A.17.17,0,0,0,0,7.206v.828A.086.086,0,0,0,.137,8.1L4.965,4.333a.343.343,0,0,0,0-.544Z" transform="translate(3.234 1.424)"/></g></g></g></svg>