<svg xmlns="http://www.w3.org/2000/svg" width="27.122" height="16" viewBox="0 0 27.122 16"><defs><style>.a{fill:rgba(0,0,0,0.85);fill-rule:evenodd;}</style></defs><path class="a" d="M21.7,3.254q-.7,2.614-1.393,5.231c-.229.873-.453,1.746-.716,2.609a11.28,11.28,0,0,1-1.028,2.5A4.414,4.414,0,0,1,16.61,15.4a4.907,4.907,0,0,1-1.06.346,10.383,10.383,0,0,1-1.576.186c-1.313.074-4.1.063-5.412.063l.8-2.983c.609,0,1.218,0,1.828-.015a9.194,9.194,0,0,0,1.814-.185,2.591,2.591,0,0,0,1.531-.923,5.828,5.828,0,0,0,.848-1.609c.384-1.01.777-2.455,1.054-3.495.313-1.177.615-2.357.919-3.536Zm5.424,0-2.341,8.678H20.442l2.341-8.678h4.339ZM12.814,0h4.339q-.682,2.541-1.368,5.08c-.32,1.179-.639,2.359-.986,3.53-.152.511-.3,1.02-.5,1.516a2.649,2.649,0,0,1-.669,1.05,2.157,2.157,0,0,1-.829.459,5.526,5.526,0,0,1-1.227.207c-.6.049-1.2.062-1.8.071-1.38.022-3.885.019-5.264.013-.5,0-.991-.005-1.487-.014-.359-.006-.718-.015-1.077-.038a6.011,6.011,0,0,1-.714-.079,2.092,2.092,0,0,1-.466-.135A1.254,1.254,0,0,1,0,10.483a3.787,3.787,0,0,1,.1-.882C.191,9.187.3,8.778.4,8.37c.2-.781.573-2.222.861-2.981A3.069,3.069,0,0,1,2.358,3.826a2.765,2.765,0,0,1,1.018-.4,6.664,6.664,0,0,1,.823-.1c.463-.034.926-.045,1.389-.053.659-.012,1.318-.014,1.977-.016l1.643,0h1.643l-.585,2.169c-.977,0-1.953,0-2.93,0-.285,0-.57,0-.855.018a1.094,1.094,0,0,0-.3.047.414.414,0,0,0-.249.241,3.32,3.32,0,0,0-.183.528c-.08.274-.155.549-.23.824-.115.424-.23.849-.339,1.275-.04.158-.08.315-.114.475a2.888,2.888,0,0,0-.056.337.609.609,0,0,0,.06.389.427.427,0,0,0,.327.162,3.562,3.562,0,0,0,.411.028c.225.007.45.008.675.009q.923,0,1.846,0c.283,0,.567,0,.85-.015a2.93,2.93,0,0,0,.58-.061.617.617,0,0,0,.359-.21,1.024,1.024,0,0,0,.15-.266,6.919,6.919,0,0,0,.241-.725c.277-.937.527-1.881.782-2.824l.762-2.829L12.814,0h0Z" transform="translate(0)"/></svg>