<svg xmlns="http://www.w3.org/2000/svg" width="432" height="33" viewBox="0 0 432 33"><defs><style>.a,.c{fill:#fff;}.a{stroke:rgba(0,0,0,0.15);stroke-miterlimit:10;}.b,.f{fill:rgba(0,0,0,0.65);}.b,.d{font-size:14px;font-family:SegoeUI, Segoe UI;}.c{stroke:#4d82d1;}.d{fill:#4d82d1;}.e{opacity:0;}.g{stroke:none;}.h{fill:none;}</style></defs><g transform="translate(0 0.5)"><g transform="translate(40)"><g class="a"><rect class="g" width="32" height="32" rx="2"/><rect class="h" x="0.5" y="0.5" width="31" height="31" rx="1.5"/></g><text class="b" transform="translate(13 21)"><tspan x="0" y="0">1</tspan></text><g transform="translate(40)"><rect class="c" width="32" height="32" rx="2"/><text class="d" transform="translate(12.3 21)"><tspan x="0" y="0">2</tspan></text></g><g transform="translate(80)"><g class="a"><rect class="g" width="32" height="32" rx="2"/><rect class="h" x="0.5" y="0.5" width="31" height="31" rx="1.5"/></g><text class="b" transform="translate(12 21)"><tspan x="0" y="0">3</tspan></text></g><g transform="translate(120)"><g class="a"><rect class="g" width="32" height="32" rx="2"/><rect class="h" x="0.5" y="0.5" width="31" height="31" rx="1.5"/></g><text class="b" transform="translate(11.5 21)"><tspan x="0" y="0">4</tspan></text></g><g transform="translate(160)"><g class="a"><rect class="g" width="32" height="32" rx="2"/><rect class="h" x="0.5" y="0.5" width="31" height="31" rx="1.5"/></g><text class="b" transform="translate(11.5 21)"><tspan x="0" y="0">5</tspan></text></g><g transform="translate(200)"><g class="a"><rect class="g" width="32" height="32" rx="2"/><rect class="h" x="0.5" y="0.5" width="31" height="31" rx="1.5"/></g><text class="b" transform="translate(11.5 21)"><tspan x="0" y="0">6</tspan></text></g><g transform="translate(240)"><g class="a"><rect class="g" width="32" height="32" rx="2"/><rect class="h" x="0.5" y="0.5" width="31" height="31" rx="1.5"/></g><text class="b" transform="translate(12 21)"><tspan x="0" y="0">7</tspan></text></g><g transform="translate(280)"><g class="a"><rect class="g" width="32" height="32" rx="2"/><rect class="h" x="0.5" y="0.5" width="31" height="31" rx="1.5"/></g><text class="b" transform="translate(11.5 21)"><tspan x="0" y="0">8</tspan></text></g><g transform="translate(320)"><g class="a"><rect class="g" width="32" height="32" rx="2"/><rect class="h" x="0.5" y="0.5" width="31" height="31" rx="1.5"/></g><text class="b" transform="translate(11.5 21)"><tspan x="0" y="0">9</tspan></text></g></g><g class="a"><rect class="g" width="32" height="32" rx="2"/><rect class="h" x="0.5" y="0.5" width="31" height="31" rx="1.5"/></g><g transform="translate(8 8)"><rect class="e" width="16" height="16"/><rect class="e" width="16" height="16"/><path class="f" d="M7.438,1.333V.125a.125.125,0,0,0-.2-.1L.192,5.528a.5.5,0,0,0,0,.786l7.044,5.5a.124.124,0,0,0,.2-.1v-1.2a.253.253,0,0,0-.1-.2L1.717,5.922,7.342,1.53A.253.253,0,0,0,7.438,1.333Z" transform="translate(3.875 2.078)"/></g><g transform="translate(400)"><g class="a"><rect class="g" width="32" height="32" rx="2"/><rect class="h" x="0.5" y="0.5" width="31" height="31" rx="1.5"/></g><g transform="translate(8 8)"><rect class="e" width="16" height="16"/><path class="f" d="M7.245,5.528.2.027a.124.124,0,0,0-.2.1V1.333a.253.253,0,0,0,.1.2L5.72,5.922.1,10.314a.248.248,0,0,0-.1.2v1.208a.125.125,0,0,0,.2.1l7.044-5.5a.5.5,0,0,0,0-.794Z" transform="translate(4.719 2.078)"/></g></g></g></svg>