<svg xmlns="http://www.w3.org/2000/svg" width="40.684" height="24" viewBox="0 0 40.684 24"><defs><style>.a{fill:rgba(161,161,161,0.85);fill-rule:evenodd;}</style></defs><path class="a" d="M32.548,4.881q-1.055,3.921-2.09,7.847c-.343,1.309-.68,2.619-1.075,3.914a16.92,16.92,0,0,1-1.541,3.745,6.622,6.622,0,0,1-2.927,2.721,7.36,7.36,0,0,1-1.591.519,15.575,15.575,0,0,1-2.365.279c-1.97.111-6.149.094-8.118.094l1.207-4.475c.914,0,1.828,0,2.741-.022a13.791,13.791,0,0,0,2.72-.277,3.887,3.887,0,0,0,2.3-1.385,8.743,8.743,0,0,0,1.273-2.413c.576-1.515,1.166-3.683,1.582-5.242.47-1.765.922-3.535,1.378-5.3Zm8.136,0L37.172,17.9H30.664L34.176,4.881h6.508ZM19.221,0H25.73q-1.023,3.811-2.052,7.621c-.481,1.769-.958,3.538-1.48,5.3-.228.766-.455,1.53-.753,2.274a3.974,3.974,0,0,1-1,1.575,3.235,3.235,0,0,1-1.243.689,8.29,8.29,0,0,1-1.84.311c-.9.074-1.8.092-2.7.107-2.069.033-5.827.029-7.9.02-.744,0-1.487-.008-2.231-.021-.539-.01-1.078-.023-1.616-.057A9.016,9.016,0,0,1,1.847,17.7a3.138,3.138,0,0,1-.7-.2A1.882,1.882,0,0,1,0,15.725,5.68,5.68,0,0,1,.158,14.4c.129-.621.289-1.234.448-1.847.3-1.172.859-3.333,1.292-4.471A4.6,4.6,0,0,1,3.536,5.739a4.147,4.147,0,0,1,1.527-.594A10,10,0,0,1,6.3,4.989c.694-.052,1.389-.068,2.084-.08.988-.017,1.977-.021,2.965-.024l2.465,0h2.465L15.4,8.136c-1.465,0-2.93,0-4.4,0-.428,0-.855,0-1.282.027a1.641,1.641,0,0,0-.447.071A.621.621,0,0,0,8.9,8.6a4.981,4.981,0,0,0-.275.792c-.121.411-.232.824-.344,1.237-.172.636-.345,1.273-.508,1.912-.06.237-.12.473-.171.712a4.332,4.332,0,0,0-.084.5.913.913,0,0,0,.09.584.641.641,0,0,0,.491.243,5.343,5.343,0,0,0,.616.043c.337.01.675.012,1.012.013q1.384.007,2.769,0c.425,0,.85-.006,1.275-.023a4.4,4.4,0,0,0,.87-.091.925.925,0,0,0,.538-.315,1.536,1.536,0,0,0,.226-.4,10.378,10.378,0,0,0,.361-1.087c.416-1.405.791-2.821,1.173-4.235l1.143-4.244L19.221,0h0Z" transform="translate(0)"/></svg>